<?xml version="1.0" encoding="UTF-8"?>
<svg width="162px" height="162px" viewBox="0 0 162 162" version="1.1" xmlns="http://www.w3.org/2000/svg" xmlns:xlink="http://www.w3.org/1999/xlink">
    <!-- Generator: Sketch 41.2 (35397) - http://www.bohemiancoding.com/sketch -->
    <title>shape-4</title>
    <desc>Created with Sketch.</desc>
    <defs>
        <path d="M93.6666667,57.3333333 L93.6666667,39.1674525 C93.6666667,29.125889 85.533173,21 75.5,21 C65.464621,21 57.3333333,29.1338456 57.3333333,39.1674525 L57.3333333,57.3333333 L39.1674525,57.3333333 C29.125889,57.3333333 21,65.466827 21,75.5 C21,85.535379 29.1338456,93.6666667 39.1674525,93.6666667 L57.3333333,93.6666667 L57.3333333,111.832547 C57.3333333,121.874111 65.466827,130 75.5,130 C85.535379,130 93.6666667,121.866154 93.6666667,111.832547 L93.6666667,93.6666667 L111.832547,93.6666667 C121.874111,93.6666667 130,85.533173 130,75.5 C130,65.464621 121.866154,57.3333333 111.832547,57.3333333 L93.6666667,57.3333333 Z" id="path-1"></path>
        <mask id="mask-2" maskContentUnits="userSpaceOnUse" maskUnits="objectBoundingBox" x="0" y="0" width="109" height="109" fill="white">
            <use xlink:href="#path-1"></use>
        </mask>
    </defs>
    <g id="Icons" stroke="none" stroke-width="1" fill="none" fill-rule="evenodd">
        <g id="shape-4" transform="translate(6.000000, 6.000000)" stroke="#000000">
            <g id="Oval-5" stroke-width="11">
                <circle cx="75" cy="75" r="75"></circle>
            </g>
            <use id="Combined-Shape" mask="url(#mask-2)" stroke-width="10" xlink:href="#path-1"></use>
        </g>
    </g>
</svg>