<?xml version="1.0" encoding="UTF-8"?>
<svg width="162px" height="162px" viewBox="0 0 162 162" version="1.1" xmlns="http://www.w3.org/2000/svg" xmlns:xlink="http://www.w3.org/1999/xlink">
    <!-- Generator: Sketch 41.2 (35397) - http://www.bohemiancoding.com/sketch -->
    <title>shape-15</title>
    <desc>Created with Sketch.</desc>
    <defs></defs>
    <g id="Icons" stroke="none" stroke-width="1" fill="none" fill-rule="evenodd">
        <g id="shape-15" transform="translate(6.000000, 6.000000)" stroke="#000000">
            <g id="Oval-5" stroke-width="11">
                <circle cx="75" cy="75" r="75"></circle>
            </g>
            <g id="Group-2" transform="translate(24.000000, 53.000000)" stroke-width="5">
                <path d="M21.8571429,44 C33.9285095,44 51,22 51,22 C51,22 33.9285095,0 21.8571429,0 C9.78577618,0 3.55271368e-15,9.8497355 3.55271368e-15,22 C3.55271368e-15,34.1502645 9.78577618,44 21.8571429,44 Z" id="Oval-4"></path>
                <path d="M72.8571429,44 C84.9285095,44 102,22 102,22 C102,22 84.9285095,0 72.8571429,0 C60.7857762,0 51,9.8497355 51,22 C51,34.1502645 60.7857762,44 72.8571429,44 Z" id="Oval-4-Copy" transform="translate(76.500000, 22.000000) scale(-1, 1) translate(-76.500000, -22.000000) "></path>
            </g>
        </g>
    </g>
</svg>