<?xml version="1.0" encoding="UTF-8"?>
<svg width="162px" height="162px" viewBox="0 0 162 162" version="1.1" xmlns="http://www.w3.org/2000/svg" xmlns:xlink="http://www.w3.org/1999/xlink">
    <!-- Generator: Sketch 41.2 (35397) - http://www.bohemiancoding.com/sketch -->
    <title>shape-10</title>
    <desc>Created with Sketch.</desc>
    <defs>
        <path d="M95.6666667,59.3333333 L95.6666667,41.1674525 C95.6666667,31.125889 87.533173,23 77.5,23 C67.464621,23 59.3333333,31.1338456 59.3333333,41.1674525 L59.3333333,59.3333333 L41.1674525,59.3333333 C31.125889,59.3333333 23,67.466827 23,77.5 C23,87.535379 31.1338456,95.6666667 41.1674525,95.6666667 L59.3333333,95.6666667 L59.3333333,113.832547 C59.3333333,123.874111 67.466827,132 77.5,132 C87.535379,132 95.6666667,123.866154 95.6666667,113.832547 L95.6666667,95.6666667 L113.832547,95.6666667 C123.874111,95.6666667 132,87.533173 132,77.5 C132,67.464621 123.866154,59.3333333 113.832547,59.3333333 L95.6666667,59.3333333 Z" id="path-1"></path>
        <mask id="mask-2" maskContentUnits="userSpaceOnUse" maskUnits="objectBoundingBox" x="0" y="0" width="109" height="109" fill="white">
            <use xlink:href="#path-1"></use>
        </mask>
    </defs>
    <g id="Page-1" stroke="none" stroke-width="1" fill="none" fill-rule="evenodd">
        <g id="shape-10" transform="translate(4.000000, 4.000000)" stroke="#000000">
            <g id="Oval-5" transform="translate(2.000000, 2.000000)" stroke-width="11">
                <circle cx="75" cy="75" r="75"></circle>
            </g>
            <use id="Combined-Shape" mask="url(#mask-2)" stroke-width="10" transform="translate(77.500000, 77.500000) rotate(-315.000000) translate(-77.500000, -77.500000) " xlink:href="#path-1"></use>
        </g>
    </g>
</svg>