<?xml version="1.0" encoding="UTF-8"?>
<svg width="162px" height="162px" viewBox="0 0 162 162" version="1.1" xmlns="http://www.w3.org/2000/svg" xmlns:xlink="http://www.w3.org/1999/xlink">
    <!-- Generator: Sketch 41.2 (35397) - http://www.bohemiancoding.com/sketch -->
    <title>shape-5</title>
    <desc>Created with Sketch.</desc>
    <defs>
        <path d="M94.3059942,42.0910347 L94.3059942,37.0008219 C94.3059942,26.4986362 85.7994045,18 75.3059942,18 C64.8102768,18 56.3059942,26.5069577 56.3059942,37.0008219 L56.3059942,42.0910347 L51.8977407,39.5459283 C42.8025811,34.2948354 31.1892513,37.4124402 25.9425462,46.5 C20.6946875,55.589558 23.8097877,67.2079615 32.8977407,72.4548936 L37.3059942,75 L32.8977407,77.5451064 C23.8025811,82.7961992 20.6958411,94.4124402 25.9425462,103.5 C31.1904049,112.589558 42.8097877,115.701004 51.8977407,110.454072 L56.3059942,107.908965 L56.3059942,112.999178 C56.3059942,123.501364 64.812584,132 75.3059942,132 C85.8017117,132 94.3059942,123.493042 94.3059942,112.999178 L94.3059942,107.908965 L98.7142478,110.454072 C107.809407,115.705165 119.422737,112.58756 124.669442,103.5 C129.917301,94.410442 126.802201,82.7920385 117.714248,77.5451064 L113.305994,75 L117.714248,72.4548936 C126.809407,67.2038008 129.916147,55.5875598 124.669442,46.5 C119.421584,37.410442 107.802201,34.2989962 98.7142478,39.5459283 L94.3059942,42.0910347 Z" id="path-1"></path>
        <mask id="mask-2" maskContentUnits="userSpaceOnUse" maskUnits="objectBoundingBox" x="0" y="0" width="103.827231" height="114" fill="white">
            <use xlink:href="#path-1"></use>
        </mask>
    </defs>
    <g id="Icons" stroke="none" stroke-width="1" fill="none" fill-rule="evenodd">
        <g id="shape-5" transform="translate(6.000000, 6.000000)" stroke="#000000">
            <g id="Oval-5" stroke-width="11">
                <circle cx="75" cy="75" r="75"></circle>
            </g>
            <use id="Rectangle-4" mask="url(#mask-2)" stroke-width="10" xlink:href="#path-1"></use>
        </g>
    </g>
</svg>