<?xml version="1.0" encoding="UTF-8"?>
<svg width="162px" height="162px" viewBox="0 0 162 162" version="1.1" xmlns="http://www.w3.org/2000/svg" xmlns:xlink="http://www.w3.org/1999/xlink">
    <!-- Generator: Sketch 41.2 (35397) - http://www.bohemiancoding.com/sketch -->
    <title>shape-8</title>
    <desc>Created with Sketch.</desc>
    <defs></defs>
    <g id="Page-1" stroke="none" stroke-width="1" fill="none" fill-rule="evenodd">
        <g id="shape-8" transform="translate(6.000000, 6.000000)" stroke="#000000">
            <g id="Oval-5" stroke-width="11">
                <circle cx="75" cy="75" r="75"></circle>
            </g>
            <path d="M114,42.2078188 C114,38.0325651 110.609107,34.6544603 106.42623,34.6544603 C102.242432,34.6544603 98.852459,38.036214 98.852459,42.2078188 L98.852459,69.8352941 L98.852459,33.3298291 C98.852459,29.1545755 95.4615665,25.7764706 91.2786885,25.7764706 C87.0948909,25.7764706 83.704918,29.1582244 83.704918,33.3298291 L83.704918,69.8352941 L83.704918,29.5533585 C83.704918,25.3781049 80.3140255,22 76.1311475,22 C71.9473499,22 68.557377,25.3817538 68.557377,29.5533585 L68.557377,69.8352941 L68.557377,33.1351903 C68.557377,28.9599367 65.1664845,25.5818318 60.9836066,25.5818318 C56.7998089,25.5818318 53.4098361,28.9635856 53.4098361,33.1351903 L53.4098361,83.8352941 L53.4098361,69.8352941 L53.4098361,62.217509 C53.4098361,57.6912309 49.7363691,54.0294118 45.204918,54.0294118 C40.6724706,54.0294118 37,57.6953478 37,62.217509 L37,82.1088235 L37,99.4176471 C37,115.759122 50.2792652,129 66.6600689,129 L84.3399311,129 C100.719405,129 114,115.755529 114,99.4176471 L114,82.4566419 L114,42.2078188 Z" id="Combined-Shape" stroke-width="5"></path>
        </g>
    </g>
</svg>